<?xml version="1.0" encoding="UTF-8" standalone="no"?>
<!-- Created with Inkscape (http://www.inkscape.org/) -->

<svg
   xmlns:dc="http://purl.org/dc/elements/1.1/"
   xmlns:cc="http://creativecommons.org/ns#"
   xmlns:rdf="http://www.w3.org/1999/02/22-rdf-syntax-ns#"
   xmlns:svg="http://www.w3.org/2000/svg"
   xmlns="http://www.w3.org/2000/svg"
   xmlns:xlink="http://www.w3.org/1999/xlink"
   xmlns:sodipodi="http://sodipodi.sourceforge.net/DTD/sodipodi-0.dtd"
   xmlns:inkscape="http://www.inkscape.org/namespaces/inkscape"
   version="1.1"
   id="svg45"
   width="1376"
   height="533.33331"
   viewBox="0 0 1376 533.33331"
   sodipodi:docname="logo2.svg"
   inkscape:version="0.92.2 (5c3e80d, 2017-08-06)">
  <metadata
     id="metadata51">
    <rdf:RDF>
      <cc:Work
         rdf:about="">
        <dc:format>image/svg+xml</dc:format>
        <dc:type
           rdf:resource="http://purl.org/dc/dcmitype/StillImage" />
        <dc:title></dc:title>
      </cc:Work>
    </rdf:RDF>
  </metadata>
  <defs
     id="defs49" />
  <sodipodi:namedview
     pagecolor="#ffffff"
     bordercolor="#666666"
     borderopacity="1"
     objecttolerance="10"
     gridtolerance="10"
     guidetolerance="10"
     inkscape:pageopacity="0"
     inkscape:pageshadow="2"
     inkscape:window-width="3840"
     inkscape:window-height="2036"
     id="namedview47"
     showgrid="false"
     inkscape:zoom="2.6468023"
     inkscape:cx="688"
     inkscape:cy="266.66666"
     inkscape:window-x="0"
     inkscape:window-y="68"
     inkscape:window-maximized="1"
     inkscape:current-layer="svg45" />
  <image
     width="1376"
     height="533.33331"
     preserveAspectRatio="none"
     id="image53"
     x="0"
     y="0" />
  <g
     id="g55">
    <path
       style="fill:#316be3;stroke-width:1.33333325"
       d="m 790,522.49519 c -90.01067,-4.35227 -153.07587,-50.26848 -162.1034,-118.02343 -2.68979,-20.1879 0.53836,-47.53842 7.73172,-65.50711 7.01255,-17.51701 25.73603,-41.2122 42.03835,-53.20092 C 681.15,283.20209 684,280.64799 684,280.08795 c 0,-0.56004 -4.66551,-5.75894 -10.36779,-11.55311 -19.7395,-20.0576 -31.81469,-42.51186 -34.34626,-63.86818 -1.2038,-10.15514 -2.25783,-11.55303 -7.36792,-9.77163 -2.15492,0.7512 -3.91803,1.85976 -3.91803,2.46345 0,0.6037 1.25581,6.38526 2.79069,12.84791 3.55768,14.97977 3.18712,30.60327 -0.91221,38.46027 -4.02937,7.72289 -12.09868,12.96634 -21.10349,13.71309 -4.02518,0.3338 -8.79996,0.23508 -10.61064,-0.21937 -7.6664,-1.92415 -13.41479,-9.95674 -16.09728,-22.49372 -1.03256,-4.82582 -3.17902,-4.62808 -12.16584,1.12072 l -7.48388,4.78737 0.90022,6.21263 c 0.49512,3.41693 1.18406,63.56189 1.53096,133.65544 0.5433,109.77132 0.36482,127.66356 -1.28717,129.03457 -4.77392,3.96201 -22.5776,6.01627 -52.89469,6.10321 -27.55947,0.0791 -30.77842,-0.1587 -39.56863,-2.92256 -19.00983,-5.97713 -29.70649,-20.4236 -32.37588,-43.7255 -0.80792,-7.05267 -1.37143,-50.71479 -1.37789,-106.76492 -0.012,-103.03612 0.13794,-100.80979 -7.4542,-110.76362 -13.19215,-17.29578 -47.26876,-19.73997 -71.69731,-5.14257 l -6.85943,4.09889 -0.33993,129.68868 -0.33995,129.68867 -3.18186,1.20975 c -1.75004,0.66536 -10.17664,2.22201 -18.72579,3.45924 -19.64331,2.84274 -60.18595,2.14558 -70.80612,-1.21756 -14.75336,-4.67203 -25.76007,-15.93839 -30.79597,-31.52245 -2.16096,-6.68727 -2.43319,-16.55438 -3.09006,-112 -0.81502,-118.42801 -0.11253,-111.13063 -11.67769,-121.31066 -9.60357,-8.4534 -18.37421,-11.21912 -35.70929,-11.26051 -13.70067,-0.0327 -15.35056,0.25798 -25.05,4.41332 -5.71084,2.44659 -11.26084,5.32583 -12.33334,6.39834 -1.68442,1.68442 -1.95,19.64609 -1.95,131.88775 v 129.93775 l -3.2775,1.24611 c -1.80264,0.68536 -10.00846,2.23321 -18.23516,3.43967 -19.435265,2.85018 -60.837667,2.12968 -71.355265,-1.24178 -14.635266,-4.69138 -25.719593,-15.72961 -30.762046,-30.63411 -2.134954,-6.31051 -2.359203,-17.10898 -2.727238,-131.32713 -0.265552,-82.41311 0.06887,-127.00113 0.990026,-132 3.885012,-21.08285 21.709216,-39.29931 54.400748,-55.59793 56.087005,-27.96261 130.193455,-34.3799 184.909455,-16.01234 11.40134,3.8273 27.18029,11.5572 37.93432,18.58353 l 7.21068,4.71121 5.45598,-3.40102 c 9.28426,-5.78743 34.25583,-17.32059 45.46998,-21.00039 32.28174,-10.59293 76.98453,-12.31881 112.39156,-4.33921 29.5438,6.65821 49.79337,17.13465 68.96205,35.67861 6.72501,6.50584 12.90944,11.8288 13.74316,11.8288 0.83372,0 4.43941,-1.79888 8.01263,-3.99751 8.25938,-5.08204 21.92201,-11.28717 29.10933,-13.22052 5.31019,-1.42841 5.69628,-1.88856 8.39893,-10.01002 3.90686,-11.74012 9.7991,-20.12964 17.17955,-24.46068 5.07088,-2.97572 8.30769,-3.75334 17.91883,-4.30484 l 11.73002,-0.6731 5.70494,-13.44007 c 18.47302,-43.520013 54.00472,-75.919098 99.9322,-91.121784 40.66328,-13.460157 86.6009,-12.915965 127.49393,1.510334 52.34796,18.467385 91.06681,57.966607 106.24352,108.38486 3.14835,10.45905 3.58224,14.04028 3.37892,27.88856 -0.27879,18.98837 -1.89535,30.01473 -6.36933,43.44431 -6.04763,18.15318 -20.73958,39.12048 -35.06943,50.04856 -3.72613,2.84159 -6.77479,5.90816 -6.77479,6.81461 0,0.90646 3.45,4.30724 7.66667,7.55731 17.29428,13.32988 36.85072,36.70669 43.74008,52.28475 7.36913,16.66293 9.17415,27.35922 9.21861,54.62855 0.048,29.44287 -1.74316,38.08104 -12.02377,57.98619 C 949.7954,498.46946 881.67185,526.92779 790,522.49519 Z m 31.38713,-95.83874 c 28.76228,-5.45466 45.73934,-29.16295 41.31276,-57.69289 -2.95745,-19.06126 -15.60912,-34.68773 -36.37998,-44.93411 l -10.98658,-5.41973 -9.7715,2.72887 c -34.61799,9.66766 -52.52704,31.07877 -50.51759,60.39611 1.56672,22.85803 15.8956,39.31152 38.51,44.22008 10.38017,2.25308 18.5644,2.4594 27.83289,0.70167 z m -0.70805,-198.75957 c 12.22683,-5.07421 22.02589,-13.72182 27.13537,-23.94681 4.32799,-8.66107 6.34442,-19.79821 4.93998,-27.28453 l -0.88198,-4.70133 -44.26956,0.35122 -44.26956,0.35123 -0.39453,9.80501 c -0.59003,14.66319 2.17339,21.56032 12.93772,32.29092 4.83457,4.81944 12.69015,10.98164 17.45681,13.69379 10.03219,5.70813 12.35795,5.66054 27.34575,-0.5595 z m -27.09548,-89.15021 2.25027,-4.42784 h 12.32262 c 11.76972,0 12.37399,0.14242 13.46702,3.17392 1.43338,3.9755 4.72274,6.54651 7.17276,5.60635 2.13533,-0.81941 2.55058,-7.85468 0.53706,-9.09911 -2.45554,-1.51761 -1.36886,-4.80892 2.72514,-8.2538 2.23216,-1.87823 5.24156,-5.73403 6.68757,-8.56844 2.54101,-4.9808 2.8406,-5.14271 8.94153,-4.83228 5.93002,0.30173 6.31243,0.11926 6.31243,-3.01214 0,-2.74338 -0.88493,-3.55194 -5,-4.56849 -4.41003,-1.08941 -5.00513,-1.71872 -5.04353,-5.333331 -0.0239,-2.253999 -1.20112,-7.39818 -2.61596,-11.431513 l -2.57244,-7.333333 3.96132,-3.333333 c 2.17872,-1.833333 3.9559,-4.402164 3.94929,-5.708513 -0.0155,-3.063636 -3.75885,-4.494087 -6.52657,-2.494005 -6.12442,4.425781 -7.54375,4.534997 -12.77758,0.983232 -2.79052,-1.893706 -7.39137,-4.06719 -10.2241,-4.829966 C 812.30732,63.979965 812,63.591788 812,58.778532 c 0,-2.923338 -0.85777,-5.830573 -2,-6.778534 -3.11824,-2.587911 -6,0.680253 -6,6.804523 0,4.515114 -0.44869,5.24985 -3.66667,6.004177 -2.01666,0.47273 -7.09389,2.710139 -11.28273,4.972022 l -7.61608,4.112511 -3.26497,-3.06729 c -3.74951,-3.522477 -7.91118,-3.311267 -8.63324,0.438152 -0.3139,1.629869 1.00042,3.814405 3.60065,5.984689 l 4.09497,3.417881 -2.57244,7.333333 c -1.41484,4.033333 -2.59202,9.177514 -2.61596,11.431513 -0.0384,3.614611 -0.6335,4.243921 -5.04353,5.333331 -4.11507,1.01655 -5,1.82511 -5,4.56849 0,3.08321 0.47069,3.33333 6.27288,3.33333 6.004,0 6.44097,0.26406 10.19423,6.1603 2.15674,3.38816 5.3071,7.13091 7.0008,8.31722 2.81745,1.97342 2.94272,2.53502 1.47244,6.60104 -2.0545,5.68159 -2.03636,8.52748 0.0596,9.36588 2.85598,1.1424 4.257,0.21363 6.5836,-4.36443 z m 9.34807,-15.74668 c 4.79781,-9.84715 4.89946,-9.90303 8.11418,-4.46094 3.12706,5.29367 3.03036,5.46094 -3.15696,5.46094 -2.99445,0 -5.2252,-0.45 -4.95722,-1 z m -14.1894,-7.29667 c -3.14055,-4.48376 -2.53787,-6.02428 2.59106,-6.62305 5.20227,-0.60733 5.25927,-0.51147 3.2029,5.38743 -1.73232,4.96935 -2.99078,5.23773 -5.79396,1.23562 z m 32.7215,-1.23562 c -2.10468,-6.03747 -1.88378,-6.61054 2.2029,-5.71508 7.34986,1.61049 7.37416,1.64359 4.33725,5.90854 -3.60525,5.06311 -4.71919,5.03016 -6.54015,-0.19346 z m -15.40682,-14.37557 c -0.98607,-1.595473 1.52216,-3.176306 3.29813,-2.078693 1.49115,0.921579 0.51223,3.319893 -1.35508,3.319893 -0.64677,0 -1.52115,-0.55854 -1.94305,-1.2412 z m -22.82559,-4.885818 c 1.52985,-6.189131 3.09084,-6.823513 7.04945,-2.864901 4.15722,4.157221 3.82494,4.817858 -2.9786,5.921919 -4.99998,0.811386 -5.02282,0.79423 -4.07085,-3.057018 z M 825,97.747561 c -3.15596,-0.824739 -2.9404,-2.045756 1.01765,-5.764154 3.67816,-3.455451 5.13628,-2.778987 6.50227,3.016589 0.75464,3.201729 0.4806,3.647054 -2.16119,3.511998 -1.66397,-0.08507 -4.0754,-0.429062 -5.35873,-0.764433 z m -29.18563,-15.08001 c -3.08897,-2.616033 -3.09941,-2.703116 -0.55953,-4.666666 4.62676,-3.576903 7.41183,-2.575212 7.41183,2.665778 0,5.418113 -2.09496,6.029847 -6.8523,2.000888 z m 17.51896,-2.000888 c 0,-5.234772 2.77247,-6.2385 7.41183,-2.68334 2.53229,1.940502 2.5162,2.040628 -0.74516,4.637019 -4.92051,3.917256 -6.66667,3.405541 -6.66667,-1.953679 z M 1175.3333,522.51278 c -71.8378,-2.94726 -116.0187,-25.71022 -123.4021,-63.57944 -2.9413,-15.08625 0.3102,-32.17001 8.4254,-44.26669 5.8023,-8.64908 13.134,-16 15.9583,-16 1.3422,0 5.5506,1.57605 9.352,3.50235 37.5653,19.03579 84.706,28.93367 117.8594,24.74633 25.6934,-3.24516 37.8449,-13.67529 33.6465,-28.88045 -3.1918,-11.55978 -12.003,-15.66712 -50.4194,-23.50291 -58.5731,-11.94716 -88.727,-24.61569 -110.7563,-46.53198 -15.9049,-15.82338 -23.9253,-33.93731 -26.6099,-60.09816 -2.4585,-23.95733 2.2325,-48.1622 12.9013,-66.56851 6.7675,-11.67559 26.5501,-31.43858 38.5465,-38.5083 13.529,-7.97297 29.5531,-14.47172 46.4983,-18.85801 24.3576,-6.30498 33.5511,-7.2923 67.3334,-7.23115 26.5575,0.0481 33.9579,0.52131 48.5528,3.10477 41.6717,7.37639 66.5257,21.10676 77.0817,42.58315 4.1645,8.47274 4.3655,9.58821 4.3655,24.22893 0,14.88868 -0.1438,15.64609 -4.8087,25.34728 -2.6448,5.5 -7.2298,12.7 -10.1889,16 -5.3368,5.95156 -5.4163,5.98541 -9.858,4.19369 -12.9998,-5.24402 -38.0968,-12.57292 -54.2272,-15.83554 -15.9216,-3.22042 -21.3132,-3.69148 -42.2506,-3.69148 -27.2169,0 -35.9101,1.7425 -43.9616,8.81188 -7.211,6.33128 -8.6374,16.84337 -3.1781,23.42136 3.7651,4.5367 16.3364,8.98167 42.9326,15.18013 64.6799,15.07418 95.8747,29.06297 118.5417,53.15814 11.2533,11.96225 18.0433,24.29311 22.4884,40.83917 4.0096,14.92494 4.0064,43.3056 0,58.58931 -16.821,64.06349 -78.8035,94.19547 -184.8163,89.84613 z"
       id="path63"
       inkscape:connector-curvature="0" />
    <path
       style="fill:#2f2f2f;stroke-width:1.33333325"
       d="m 781.58847,521.2632 c -42.89939,-3.83194 -81.25034,-17.60197 -107.28274,-38.52019 -22.03778,-17.70836 -35.87706,-38.67512 -43.28072,-65.57103 -3.57286,-12.97952 -3.12084,-48.66988 0.80011,-63.172 3.45865,-12.79231 10.40819,-27.86439 17.14529,-37.18458 6.64419,-9.19164 22.25654,-25.33537 30.02959,-31.05167 3.48333,-2.56164 6.33333,-5.26477 6.33333,-6.00696 0,-0.74218 -3.008,-4.05388 -6.68445,-7.35932 -17.05413,-15.33313 -32.13083,-39.24783 -36.39559,-57.73079 -3.86478,-16.74947 -3.85173,-18.45027 0.16032,-20.90206 10.173,-6.21679 13.67831,-9.10565 16.83303,-13.87275 l 3.45787,-5.22519 h 49.14721 49.14721 l 0.60626,11 c 0.46321,8.40442 1.42057,12.57308 4.05729,17.66666 5.35787,10.35031 21.25267,24.23062 33.70561,29.43379 4.33543,1.81145 5.3983,1.70824 14.75571,-1.43295 25.69943,-8.62701 39.15991,-24.90098 39.70232,-48.00083 l 0.21916,-9.33334 60.55684,-0.34709 c 38.69652,-0.22179 60.8498,0.12693 61.3684,0.96607 1.2416,2.00893 -0.88932,22.71291 -3.318,32.23782 -4.98369,19.54523 -19.12612,41.84451 -35.10557,55.35321 -4.88416,4.12896 -9.0598,8.24568 -9.27922,9.14825 -0.21941,0.90259 3.38059,4.65758 8,8.34444 10.21038,8.14914 26.78804,25.22816 33.29046,34.2973 11.21309,15.63925 17.64656,34.82647 19.87861,59.28613 7.03292,77.06931 -44.57591,132.13476 -136.86803,146.03512 -16.85214,2.53815 -53.17921,3.53203 -70.9803,1.94196 z m 37.59829,-93.31066 c 18.12436,-2.61987 34.31421,-14.00288 41.24088,-28.99625 2.45328,-5.31035 2.90569,-8.68139 2.90569,-21.65101 0,-14.66959 -0.19722,-15.762 -4.3796,-24.25762 -5.46425,-11.09945 -18.13776,-23.12091 -31.33589,-29.72367 -11.07129,-5.53875 -13.61729,-5.66703 -27.21568,-1.37127 -19.15015,6.04959 -33.04257,16.38747 -40.1806,29.89994 -10.33855,19.57111 -8.17263,44.07232 5.24333,59.31366 8.58191,9.74957 25.2684,16.80233 42.53511,17.97799 1.1,0.0749 6.13404,-0.4614 11.18676,-1.19177 z m 354.14654,93.80241 c -15.5263,-0.88585 -42.4825,-4.79475 -54.636,-7.92273 -25.491,-6.56071 -48.7916,-20.97044 -58.4148,-36.12531 -8.4919,-13.37328 -10.6721,-32.35618 -5.6016,-48.77249 2.7652,-8.95256 11.4621,-22.23138 17.8527,-27.25824 l 3.5519,-2.79389 16.1056,7.31217 c 30.6177,13.90084 51.9166,19.63088 81.2732,21.86496 42.1947,3.21107 65.2024,-5.89148 65.2024,-25.79605 0,-14.58016 -9.6137,-20.06097 -49.7285,-28.35043 -34.4907,-7.12728 -53.0511,-12.25564 -68.5707,-18.94649 -39.6221,-17.08202 -58.4214,-36.44005 -67.2401,-69.23857 -4.0179,-14.94331 -4.034,-44.7137 -0.032,-59.44352 7.8423,-28.86548 28.8311,-53.25678 58.6913,-68.20579 19.1275,-9.57588 43.7031,-16.42087 70.1574,-19.5408 16.8158,-1.98319 63.8153,-0.82426 80.0959,1.97505 31.3221,5.38559 53.5556,14.85203 67.4155,28.70375 11.3834,11.37664 14.5447,19.21189 14.5447,36.04798 0,17.83148 -6.1943,34.23041 -16.6341,44.0382 -2.9747,2.79456 -3.8404,2.98167 -7.6922,1.66259 -2.3872,-0.81751 -10.5211,-3.6272 -18.0753,-6.24378 -7.5542,-2.61658 -22.8542,-6.66361 -34,-8.99341 -18.1433,-3.79248 -22.7081,-4.24431 -43.5984,-4.31541 -20.7053,-0.0705 -24.3845,0.25948 -32.6667,2.92953 -13.6305,4.39431 -19.3371,10.18729 -19.3283,19.62107 0.01,7.681 3.8804,13.13413 12.2155,17.19823 3.9346,1.91847 21.1054,6.76399 38.4283,10.84431 62.0947,14.62611 92.3886,28.33915 114.1359,51.66548 10.8381,11.62513 17.7632,23.86141 22.1032,39.05538 4.197,14.69326 4.2222,45.46783 0.049,60.83992 -11.8105,43.51371 -46.797,71.98038 -102.0701,83.04918 -24.804,4.96714 -54.5134,6.7949 -83.5343,5.13911 z M 60.410409,519.92719 c -13.05895,-1.48284 -23.800473,-5.27296 -31.45349,-11.09825 -6.722942,-5.11736 -13.702128,-18.01771 -15.675686,-28.975 -0.862626,-4.78933 -1.215399,-52.74403 -0.980852,-133.33333 l 0.366286,-125.85395 4.165452,-8.66667 c 19.728029,-41.04626 111.317671,-74.73168 185.368001,-68.1758 30.93435,2.73871 60.12983,11.69355 81.1498,24.89031 6.38245,4.00703 12.06205,7.28549 12.62133,7.28549 0.5593,0 9.04456,-4.16745 18.85615,-9.26101 33.71933,-17.50493 57.28495,-23.12941 97.1726,-23.19248 25.68992,-0.0407 37.92751,1.45996 58.66667,7.19376 12.84661,3.55175 32.67154,12.93275 43.13536,20.41135 12.63228,9.02841 30.12696,28.02991 35.76769,38.84838 13.96749,26.78849 14.33476,31.44149 14.38777,182.28642 0.0419,119.14289 0.003,120.97419 -2.59357,122.36386 -5.72197,3.06231 -30.27381,5.74687 -52.69725,5.76205 -33.35907,0.0227 -45.4341,-3.45916 -57.13632,-16.47485 -4.24464,-4.72107 -7.09954,-9.62969 -9.15044,-15.73305 -2.95972,-8.80796 -2.98592,-9.62084 -3.68043,-114.20444 L 438,268.66665 l -4,-7.28591 c -7.74891,-14.1145 -21.35776,-20.6715 -42.66667,-20.55763 -10.23566,0.0547 -13.56829,0.68336 -22.66666,4.27579 -5.86667,2.31641 -12.3344,5.56678 -14.37274,7.22304 l -3.70606,3.01138 0.0521,128.94629 c 0.0492,121.74054 -0.0791,129.01603 -2.29393,130.19427 -3.43976,1.82982 -26.90266,5.21836 -43.0127,6.21196 -16.88908,1.04164 -40.42429,-1.17804 -49.64694,-4.68236 -9.54438,-3.62658 -16.38588,-8.75932 -21.03891,-15.78409 -8.83072,-13.33194 -8.49264,-8.77886 -9.27293,-124.88607 l -0.70788,-105.33333 -3.12846,-6.29424 c -6.05297,-12.17813 -17.64966,-19.69484 -34.96628,-22.66432 -11.82725,-2.02815 -24.1467,-0.14361 -38.06866,5.82345 L 138,251.36666 137.33333,382.3988 c -0.55956,109.98162 -0.96477,131.21636 -2.5223,132.17882 -6.6431,4.10498 -54.841287,7.57054 -74.400621,5.34957 z"
       id="path59"
       inkscape:connector-curvature="0" />
    <path
       style="fill:#000000;stroke-width:1.33333325"
       d="M 779.33333,519.85487 C 711.81364,513.564 660.5252,483.16849 639.35711,436.89951 c -7.77714,-16.99914 -9.36147,-25.59466 -9.25895,-50.23286 0.10347,-24.85139 2.21001,-35.45141 10.53952,-53.0327 7.99627,-16.87794 26.14252,-38.21642 41.07488,-48.30063 2.71473,-1.83333 4.93999,-4.15319 4.945,-5.15521 0.005,-1.00204 -4.06144,-5.80204 -9.03656,-10.66667 -19.49557,-19.06262 -30.62016,-37.77396 -34.98543,-58.84478 -2.98172,-14.39251 -3.52876,-13.0405 8.0923,-20 3.06132,-1.83333 7.32873,-5.88333 9.48313,-9 l 3.91711,-5.66667 h 47.7606 47.76061 l 0.62504,9.7396 c 1.11243,17.33395 8.58321,28.81987 26.79589,41.19717 12.56018,8.53588 15.41838,9.3644 23.80418,6.90019 27.03049,-7.94307 43.79224,-26.72811 43.79224,-49.07837 v -8.47471 l 21.66666,-0.8926 C 888.25,174.90034 915.4,174.68646 936.66667,174.91599 l 38.66666,0.41734 -0.41356,8.66666 c -1.46218,30.64168 -15.36384,57.79267 -40.55648,79.20985 -4.23314,3.59875 -7.69662,7.54703 -7.69662,8.77397 0,1.22694 2.77706,4.22512 6.17125,6.66264 17.81051,12.79055 36.21896,33.99767 44.37463,51.12099 6.34356,13.3187 8.98624,23.66485 11.03613,43.20668 6.68769,63.75455 -29.27516,114.03755 -97.50804,136.33502 -31.05117,10.14705 -73.0334,14.12105 -111.40731,10.54573 z m 54.37944,-94.40157 c 10.17775,-3.97561 22.33115,-15.22772 27.23642,-25.21656 3.4146,-6.9533 3.71748,-8.82168 3.71748,-22.93146 0,-14.64926 -0.20171,-15.77111 -4.35123,-24.19998 -7.01517,-14.24982 -25.80136,-30.24765 -40.79481,-34.73979 -6.77274,-2.02916 -18.51978,0.9037 -33.74002,8.42385 -27.99513,13.83205 -40.07622,43.01056 -29.5653,71.40674 4.67133,12.62 16.51441,23.13897 32.43394,28.80764 9.78631,3.48475 34.33555,2.64011 45.06352,-1.55044 z m 335.62053,94.93969 c -27.4275,-1.67197 -56.6244,-8.09991 -74.1984,-16.33537 -30.446,-14.26748 -43.1114,-32.90591 -41.505,-61.07893 0.7764,-13.61823 3.5966,-21.13744 12.0256,-32.06291 8.9962,-11.66074 9.3931,-11.76556 21.7621,-5.74548 37.6535,18.32632 66.7107,24.95617 104.6221,23.87113 22.2842,-0.63777 30.0896,-2.39901 38.4072,-8.6663 9.0165,-6.79396 12.176,-18.1022 7.5545,-27.03911 -4.9347,-9.54265 -14.6123,-13.58653 -49.3347,-20.61502 -52.1767,-10.56159 -79.5124,-20.80015 -102.6056,-38.43083 -24.3102,-18.5598 -36.8922,-49.1495 -34.9441,-84.95685 3.021,-55.5276 41.3161,-92.38463 110.9557,-106.78909 18.9436,-3.91836 68.0407,-5.01372 90.7418,-2.02444 65.0542,8.56631 96.2838,34.56026 89.8559,74.79152 -1.8217,11.40153 -5.0877,19.01681 -12.1911,28.42511 -6.2784,8.3157 -5.8381,8.28586 -23.8126,1.61357 -24.0203,-8.91652 -61.6388,-16.05403 -84.1712,-15.97015 -33.1409,0.12338 -51.8288,9.00067 -51.8288,24.62015 0,13.83544 9.2255,19.31652 47.3333,28.12165 63.8235,14.74696 92.4759,27.12699 115.4387,49.87835 9.2045,9.11985 12.5234,13.54681 16.9932,22.66666 8.5786,17.50368 10.2336,25.40328 10.196,48.66667 -0.027,16.77074 -0.5247,21.72226 -3.081,30.66666 -17.9053,62.64782 -83.5374,92.77404 -188.2136,86.39301 z M 63.333333,519.22252 C 37.709524,515.55838 26.864219,509.52812 19.397437,494.79315 13.280632,482.72222 13.176827,480.06989 13.60016,346.66665 L 14,220.66666 l 3.61196,-7.7083 c 10.798027,-23.0441 48.079411,-46.60146 93.05471,-58.79939 65.41434,-17.74131 131.96846,-11.21135 174.60146,17.13101 10.21968,6.79404 12.08791,7.15819 17.38243,3.38815 7.31819,-5.211 30.53021,-16.03436 44.15877,-20.59046 55.24898,-18.46997 126.39086,-10.58482 167.19331,18.5312 14.09561,10.05843 27.77072,26.08663 35.30597,41.38112 13.35092,27.09871 13.59499,30.44088 13.09588,179.33333 L 562,513.99998 l -13.33333,2.28734 c -18.91703,3.24524 -45.50055,4.35186 -60.36716,2.51298 -25.90046,-3.2037 -37.76042,-11.46702 -45.16308,-31.46699 -2.30155,-6.21813 -2.5125,-13.75349 -3.13534,-111.99999 l -0.66776,-105.33333 -3.1594,-6.98885 c -10.0027,-22.12684 -40.69476,-30.15623 -69.90365,-18.28759 -4.38212,1.78061 -9.98563,4.77679 -12.45223,6.65815 l -4.48472,3.42066 v 129.21409 129.21407 l -5,1.29344 c -18.66934,4.82951 -63.81122,6.50384 -79.66666,2.95488 -16.79332,-3.75888 -28.30014,-13.13826 -34.28887,-27.94941 l -3.04447,-7.52945 -0.6904,-105.33333 c -0.56012,-85.45656 -1.03946,-106.21394 -2.54021,-110 C 217.20808,249.27311 200.97073,239.73208 178,239.57684 c -13.05931,-0.0883 -21.68512,1.96746 -34,8.10291 l -7.33333,3.65357 -0.33984,130.85985 c -0.30936,119.11829 -0.53336,130.93409 -2.49647,131.68741 -8.99948,3.45342 -57.828735,7.15348 -70.497027,5.34194 z"
       id="path57"
       inkscape:connector-curvature="0" />
  </g>
</svg>
